<svg width="17" height="16" viewBox="0 0 17 16" fill="none" xmlns="http://www.w3.org/2000/svg">
<path d="M14.0466 3.08669L13.1532 2.19335C12.9066 1.93335 12.4732 1.93335 12.2132 2.19335L6.23991 8.16669L8.07324 10L14.0466 4.02669C14.3066 3.76669 14.3066 3.33335 14.0466 3.08669ZM4.90658 9.33335C4.37614 9.33335 3.86743 9.54407 3.49236 9.91914C3.11729 10.2942 2.90658 10.8029 2.90658 11.3334C2.90658 12.2067 2.13324 12.6667 1.57324 12.6667C2.18658 13.48 3.23991 14 4.23991 14C4.94715 14 5.62543 13.7191 6.12553 13.219C6.62562 12.7189 6.90658 12.0406 6.90658 11.3334C6.90658 10.8029 6.69586 10.2942 6.32079 9.91914C5.94572 9.54407 5.43701 9.33335 4.90658 9.33335Z" fill="white"/>
</svg>
